<?xml version="1.0" encoding="utf-8"?>
<!-- Generator: Adobe Illustrator 25.0.0, SVG Export Plug-In . SVG Version: 6.00 Build 0)  -->
<svg version="1.1" id="Calque_1" xmlns="http://www.w3.org/2000/svg" xmlns:xlink="http://www.w3.org/1999/xlink" x="0px" y="0px"
	 viewBox="0 0 32 16" style="enable-background:new 0 0 32 16;" xml:space="preserve">
<g>
	<path d="M3.06,0.54v13.13H31.5l-0.75,1.99H0.5V0.54H3.06z"/>
	<path d="M16.85,2.17c0.56,0,1.31,0.03,1.71,0.06c0.83,0.07,1.55,0.38,2.15,0.97c0.9,0.89,1.34,2.15,1.34,3.91
		c0,1.34-0.32,2.51-0.99,3.4c-0.59,0.8-1.47,1.34-2.39,1.41c-0.37,0.03-0.83,0.06-1.41,0.06h-2.39V2.17H16.85z M16.88,10.38h1.06
		c1.3,0,1.89-1,1.89-3.08c0-1.14-0.1-2.1-0.49-2.75c-0.32-0.54-0.78-0.82-1.55-0.82h-0.9V10.38z"/>
	<path d="M27.02,2.17c1.2,0,1.82,0.18,2.41,0.71c0.55,0.48,0.8,1.04,0.8,1.75c0,0.66-0.23,1.23-0.66,1.64
		c-0.28,0.27-0.45,0.37-0.9,0.51c1.21,0.35,1.95,1.19,1.95,2.47c0,1.36-0.85,2.63-2.57,2.71c-0.31,0.01-0.72,0.03-1.26,0.03h-3.09
		V2.17H27.02z M25.65,6.1h1.17c0.47,0,0.68-0.04,0.85-0.13c0.27-0.14,0.51-0.61,0.51-1c0-0.41-0.21-0.85-0.56-0.99
		c-0.17-0.07-0.38-0.13-0.82-0.13h-1.14V6.1z M25.68,10.38h1.29c0.41,0,0.71-0.06,0.92-0.23c0.3-0.23,0.51-0.68,0.51-1.14
		c0-0.56-0.28-1.07-0.72-1.2c-0.24-0.07-0.4-0.08-0.76-0.08h-1.23V10.38z"/>
	<polygon points="11.16,2.17 11,2.64 8.02,12.04 8.03,12.06 9.82,12.06 13.24,2.17 	"/>
	<polygon points="8.28,6.67 6.85,2.17 4.69,2.17 7.28,9.84 	"/>
</g>
</svg>
