<?xml version="1.0" encoding="utf-8"?>
<!-- Generator: Adobe Illustrator 25.0.0, SVG Export Plug-In . SVG Version: 6.00 Build 0)  -->
<svg version="1.1" id="Calque_1" xmlns="http://www.w3.org/2000/svg" xmlns:xlink="http://www.w3.org/1999/xlink" x="0px" y="0px"
	 viewBox="0 0 300 150" style="enable-background:new 0 0 300 150;" xml:space="preserve">
<style type="text/css">
	.st0{fill:#FFFFFF;}
</style>
<g>
	<path class="st0" d="M29.87,6v121.57h263.32L286.21,146H6.15V6H29.87z"/>
	<path class="st0" d="M157.51,21.13c5.23,0,12.16,0.26,15.82,0.52c7.71,0.65,14.38,3.53,19.88,9.02
		c8.37,8.24,12.42,19.88,12.42,36.22c0,12.42-3.01,23.28-9.15,31.51c-5.49,7.45-13.6,12.42-22.1,13.08
		c-3.4,0.26-7.71,0.52-13.08,0.52h-22.1V21.13H157.51z M157.77,97.1h9.81c12.03,0,17.52-9.28,17.52-28.51
		c0-10.59-0.91-19.48-4.58-25.5c-3.01-4.97-7.19-7.58-14.38-7.58h-8.37V97.1z"/>
	<path class="st0" d="M251.75,21.13c11.11,0,16.87,1.7,22.36,6.54c5.1,4.45,7.45,9.68,7.45,16.21c0,6.15-2.09,11.38-6.15,15.17
		c-2.61,2.48-4.18,3.4-8.37,4.71c11.25,3.27,18.04,10.98,18.04,22.88c0,12.55-7.84,24.32-23.8,25.11
		c-2.87,0.13-6.67,0.26-11.64,0.26h-28.64V21.13H251.75z M239.06,57.48h10.85c4.32,0,6.28-0.39,7.85-1.18
		c2.48-1.31,4.71-5.62,4.71-9.28c0-3.79-1.96-7.84-5.23-9.15c-1.57-0.65-3.53-1.18-7.58-1.18h-10.59V57.48z M239.33,97.1h11.9
		c3.79,0,6.54-0.52,8.5-2.09c2.75-2.09,4.71-6.28,4.71-10.59c0-5.23-2.61-9.94-6.67-11.11c-2.22-0.65-3.66-0.78-7.06-0.78h-11.38
		V97.1z"/>
	<polygon class="st0" points="104.86,21.13 103.37,25.46 75.77,112.48 75.83,112.66 92.44,112.66 124.08,21.13 	"/>
	<polygon class="st0" points="78.2,62.74 64.98,21.13 44.97,21.13 68.92,92.15 	"/>
</g>
</svg>
